# xmcd CD database file
#
# Track frame offsets:
#	150
#	47532
#	92850
#	129040
#	164385
#	194605
#	221490
#	241037
#	272740
#
# Disc length: 3889 seconds
#
# Revision: 0
# Processed by: cddbd v1.4PL0 Copyright (c) Steve Scherf et al.
# Submitted via: CDex 1.50Beta7
#
DISCID=750f2f09
DTITLE=Joel Miller - Find a Way
DYEAR=1996
DGENRE=Jazz
TTITLE0=First Light Ceremony
TTITLE1=Dark Fields
TTITLE2=Find A Way
TTITLE3=Hidden Inside
TTITLE4=From the Abyss
TTITLE5=How Are You Are
TTITLE6=Georgie
TTITLE7=Innocent
TTITLE8=(Look up, Look Down) That Lonesome Road
EXTD=YEAR: 1996
EXTT0=
EXTT1=
EXTT2=
EXTT3=
EXTT4=
EXTT5=
EXTT6=
EXTT7=
EXTT8=
PLAYORDER=
